<?xml version="1.0" encoding="utf-8"?>
<!-- Generator: Adobe Illustrator 24.2.0, SVG Export Plug-In . SVG Version: 6.00 Build 0)  -->
<svg version="1.1" id="Calque_1" xmlns="http://www.w3.org/2000/svg" xmlns:xlink="http://www.w3.org/1999/xlink" x="0px" y="0px"
	 viewBox="0 0 15 13.8" style="enable-background:new 0 0 15 13.8;" xml:space="preserve">
<style type="text/css">
	.st0{fill:none;}
</style>
<path class="st0" d="M-1.5-2.2h18v18h-18V-2.2z"/>
<path d="M10.9,0C9.6,0,8.3,0.6,7.5,1.6C6.7,0.6,5.4,0,4.1,0C1.8,0,0,1.8,0,4.1C0,7,2.6,9.3,6.4,12.8l1.1,1l1.1-1
	C12.5,9.3,15,7,15,4.1C15,1.8,13.2,0,10.9,0z M7.6,11.7L7.6,11.7H7.4C3.9,8.4,1.5,6.3,1.5,4.1c0-1.5,1.1-2.6,2.6-2.6
	c1.2,0,2.3,0.7,2.7,1.8h1.4c0.4-1,1.5-1.8,2.7-1.8c1.5,0,2.6,1.1,2.6,2.6C13.5,6.3,11.1,8.4,7.6,11.7z"/>
</svg>
